<svg id="Layer_1" data-name="Layer 1" xmlns="http://www.w3.org/2000/svg" viewBox="0 0 281.98 132.87"><defs><style>.cls-1,.cls-2{fill:#b2d336;}.cls-2{fill-rule:evenodd;}</style></defs><path class="cls-1" d="M201.55,96.75a75.49,75.49,0,0,0,2.45,8.9c.44,1.44,1,2.89,1.56,4.23s1.22,2.67,1.89,4a31.37,31.37,0,0,0,4.89,7,23.59,23.59,0,0,0,6.46,5c.33.11.55.33.89.44a6.12,6.12,0,0,1,.89.45l1,.33.44.22.56.22a23.66,23.66,0,0,0,4,1,31.2,31.2,0,0,0,8.46.33,28.78,28.78,0,0,0,4.23-.78l.55-.11c.22,0,.34-.11.56-.11l1-.34,1-.33c.33-.11.67-.33,1-.44a34.13,34.13,0,0,0,4-2c1.33-.78,2.55-1.67,3.89-2.56l-.67,1c-.11.11-.22.33-.33.44l-.34.45a3.13,3.13,0,0,1-.77.89c-.23.33-.56.55-.78.89a36,36,0,0,1-3.67,3.22l-1,.67-1,.67a3.39,3.39,0,0,1-1.11.55c-.22.11-.33.23-.55.34l-.56.22a34.09,34.09,0,0,1-4.67,1.67,27.43,27.43,0,0,1-10,.55,26.57,26.57,0,0,1-5-1.11l-.56-.22-.55-.22c-.45-.11-.78-.34-1.23-.45a6,6,0,0,1-1.22-.55c-.34-.23-.78-.34-1.11-.56a24.87,24.87,0,0,1-7.9-6.56,31.84,31.84,0,0,1-4.79-8.68,37.67,37.67,0,0,1-1.33-4.67,17.54,17.54,0,0,1-.45-2.34l-.33-2.34c-.11-1.55-.22-3.22-.22-4.78A22.05,22.05,0,0,1,201.55,96.75Z" transform="translate(-23.99 -1.15)"/><path class="cls-2" d="M296.78,57.59c6.68,12.68,5.45,31.59-7.56,35.93-12.13,4-31.71-.78-35.94,23.92,9.12-15.46,23.48-16.69,33-17.91C304,97.3,314.58,73.05,296.78,57.59" transform="translate(-23.99 -1.15)"/><path class="cls-2" d="M272.75,19.76c13.68,4.23,26.26,18.58,20,30.82C287,61.93,269.75,72.5,284.21,93c-4.45-17.36,4.89-28.48,10.79-36,10.9-14,1.22-38.71-22.25-37.16" transform="translate(-23.99 -1.15)"/><path class="cls-2" d="M228.92,10.31c12.68-6.68,31.59-5.45,35.93,7.56,4,12.13-.78,31.71,23.92,35.94-15.46-9.13-16.69-23.48-17.91-33-2.23-17.58-26.48-28.26-41.94-10.46" transform="translate(-23.99 -1.15)"/><path class="cls-2" d="M266.19,122.78" transform="translate(-23.99 -1.15)"/><path class="cls-2" d="M264.18,123" transform="translate(-23.99 -1.15)"/><path class="cls-2" d="M287.1,101.2c-4.11,13.68-18.35,26.36-30.59,20.25-11.35-5.68-22.14-22.81-42.39-8.24,17.36-4.56,28.48,4.56,36,10.46,14.24,10.9,38.71,1,36.93-22.47" transform="translate(-23.99 -1.15)"/><path class="cls-2" d="M284.32,31.45l-6.12,3.67a.6.6,0,0,1-.89-.23h0a.61.61,0,0,1,.22-.89l6.12-3.67a.6.6,0,0,1,.89.23h0C284.77,30.78,284.65,31.22,284.32,31.45Z" transform="translate(-23.99 -1.15)"/><path class="cls-2" d="M289.77,40.35,283.65,44a.6.6,0,0,1-.89-.23h0a.6.6,0,0,1,.23-.89l6.11-3.67a.6.6,0,0,1,.89.23h0A.58.58,0,0,1,289.77,40.35Z" transform="translate(-23.99 -1.15)"/><path class="cls-2" d="M288.33,35.12l-8.68,5.23a.6.6,0,0,1-.89-.23h0a.61.61,0,0,1,.22-.89L287.66,34a.6.6,0,0,1,.89.23h0A.61.61,0,0,1,288.33,35.12Z" transform="translate(-23.99 -1.15)"/><path class="cls-2" d="M226.81,116.22l-1.9,6.89a.62.62,0,0,1-.77.45h0a.63.63,0,0,1-.45-.78l1.89-6.9a.64.64,0,0,1,.78-.44h0A.64.64,0,0,1,226.81,116.22Z" transform="translate(-23.99 -1.15)"/><path class="cls-2" d="M236.93,118.89,235,125.78a.63.63,0,0,1-.78.45h0a.64.64,0,0,1-.45-.78l1.9-6.9a.63.63,0,0,1,.77-.44h0A.63.63,0,0,1,236.93,118.89Z" transform="translate(-23.99 -1.15)"/><path class="cls-2" d="M232.26,116.22,229.7,126a.64.64,0,0,1-.78.44h0a.64.64,0,0,1-.45-.78l2.56-9.79a.64.64,0,0,1,.78-.44h0C232.15,115.44,232.37,115.77,232.26,116.22Z" transform="translate(-23.99 -1.15)"/><path class="cls-2" d="M247.5,11.64l-2.9,6.57a.7.7,0,0,1-.89.33h0a.71.71,0,0,1-.33-.89l2.89-6.56a.7.7,0,0,1,.89-.34h0A.75.75,0,0,1,247.5,11.64Z" transform="translate(-23.99 -1.15)"/><path class="cls-2" d="M257.06,16l-2.89,6.57a.7.7,0,0,1-.89.33h0A.71.71,0,0,1,253,22l2.89-6.56a.7.7,0,0,1,.89-.34h0A.74.74,0,0,1,257.06,16Z" transform="translate(-23.99 -1.15)"/><path class="cls-2" d="M252.84,12.53l-4.12,9.24a.71.71,0,0,1-.89.33h0a.71.71,0,0,1-.33-.89L251.61,12a.7.7,0,0,1,.89-.34h0A.7.7,0,0,1,252.84,12.53Z" transform="translate(-23.99 -1.15)"/><path class="cls-2" d="M297.23,73.72l-6.79-2.22a.65.65,0,0,1-.45-.78h0a.64.64,0,0,1,.78-.45l6.79,2.23a.62.62,0,0,1,.44.78h0A.63.63,0,0,1,297.23,73.72Z" transform="translate(-23.99 -1.15)"/><path class="cls-2" d="M293.89,83.62,287.1,81.4a.64.64,0,0,1-.44-.78h0a.63.63,0,0,1,.78-.45l6.78,2.23a.63.63,0,0,1,.45.78h0A.56.56,0,0,1,293.89,83.62Z" transform="translate(-23.99 -1.15)"/><path class="cls-2" d="M296.89,79.17,287.32,76a.64.64,0,0,1-.44-.78h0a.63.63,0,0,1,.78-.45L297.23,78a.63.63,0,0,1,.44.78h0C297.67,79.06,297.23,79.28,296.89,79.17Z" transform="translate(-23.99 -1.15)"/><path class="cls-2" d="M271.75,106.54l4,5.89a.7.7,0,0,0,.89.23h0a.7.7,0,0,0,.23-.89l-4-5.9a.7.7,0,0,0-.89-.22h0A.58.58,0,0,0,271.75,106.54Z" transform="translate(-23.99 -1.15)"/><path class="cls-2" d="M263.07,112.32l4,5.9a.7.7,0,0,0,.89.22h0a.7.7,0,0,0,.22-.89l-4-5.89a.69.69,0,0,0-.89-.23h0C263,111.66,262.85,112.1,263.07,112.32Z" transform="translate(-23.99 -1.15)"/><path class="cls-2" d="M266.63,108.21l5.68,8.34a.7.7,0,0,0,.89.22h0a.7.7,0,0,0,.22-.89l-5.68-8.34a.7.7,0,0,0-.89-.22h0A.54.54,0,0,0,266.63,108.21Z" transform="translate(-23.99 -1.15)"/><path class="cls-1" d="M226.47,33.23a31.35,31.35,0,0,0-8.23,10.9h0l-.33.11c.33-1.89.77-8.68-5.46-17.8a1.45,1.45,0,0,1-.33-.45c-.67-.89-4.67-6.78-2.22-16.68a15,15,0,0,0-1.45,15.24s-6.68-1.67-9.12,3.67c0,0,1.55-.78,2.44-.11.23.11.34.22.56.33.89.34,3.45,1.11,5.12-1.22,0,0-.45-1.11-2.78-1.11,0,0,4.45-1.12,6,1.55,0,0,5.57,6.46,5.23,17.36,0,0-6.78-15.13-18.91-8.79a3.73,3.73,0,0,1,3.23,2.22,4.48,4.48,0,0,0,1,1.56c1.44,1.56,4.56,4.23,9,1.67a6,6,0,0,0-4.67-3.78s7.45,0,9.68,11.9l-1.45,42.5A1.33,1.33,0,0,0,215,93.63h0a1.23,1.23,0,0,0,1.23-1.22c.11-5.67.44-29.48,1.11-36.93,0,0,.11-4.34,1-5.68,10.24-18.91,31-18.47,31-18.47C233.15,32,220.91,46.8,220.91,46.8c4.89-2.12,12.35.11,12.35.11a16,16,0,0,0,15.57-3.12,21.52,21.52,0,0,0,5.34-6.89c3.45-7,9.46-6.46,9.46-6.46C245.72,22,233.7,27,226.47,33.23Z" transform="translate(-23.99 -1.15)"/><path class="cls-1" d="M223.47,56.37H206a1.52,1.52,0,0,1-1.56-1.56h0A1.52,1.52,0,0,1,206,53.25h17.47A1.52,1.52,0,0,1,225,54.81h0A1.59,1.59,0,0,1,223.47,56.37Z" transform="translate(-23.99 -1.15)"/><path class="cls-1" d="M214.79,106h0A8.74,8.74,0,0,1,206,97.19V57.59h17.58v39.6A8.8,8.8,0,0,1,214.79,106Z" transform="translate(-23.99 -1.15)"/><path class="cls-1" d="M229.48,63V57.48a21.91,21.91,0,0,0-3,.11,6.45,6.45,0,0,1-.11-.78c0-.22,0-.33.11-.44s.22-.23.34-.23.33-.11.44-.11h4a29.81,29.81,0,0,0,3.67-.11c0,.22.11.45.11.78,0,.56-.45.89-1.23.89H232c0,1-.11,2-.11,3v3a11.13,11.13,0,0,0,.34,2.89,6.67,6.67,0,0,1-1.56.22,1.47,1.47,0,0,1-1.11-.33,1.33,1.33,0,0,1-.34-1v-1A3.52,3.52,0,0,0,229.48,63Z" transform="translate(-23.99 -1.15)"/><path class="cls-1" d="M239.6,58.7a3.76,3.76,0,0,1,2,.56,2.14,2.14,0,0,1,.89,1.78c0,1.56-1.11,2.33-3.45,2.33h-1.11a1.75,1.75,0,0,0,.45,1.34,2,2,0,0,0,1.11.44,2.31,2.31,0,0,0,1.89-.77,1.17,1.17,0,0,1,.56.44,1.89,1.89,0,0,1,.22.56c0,.33-.22.55-.56.78a2.16,2.16,0,0,1-1.11.33c-.33,0-.67.11-1,.11a4.11,4.11,0,0,1-2.89-1,3.71,3.71,0,0,1-1.12-3,3.58,3.58,0,0,1,.67-2.23A3,3,0,0,1,237.71,59,4.63,4.63,0,0,1,239.6,58.7Zm-.11,1.56a1.3,1.3,0,0,0-1,.56,2.13,2.13,0,0,0-.45,1.55h.67a1.25,1.25,0,0,0,.56-.11c.22,0,.44-.11.44-.22l.33-.33a1.16,1.16,0,0,0,.12-.67.6.6,0,0,0-.23-.45C239.71,60.37,239.6,60.26,239.49,60.26Z" transform="translate(-23.99 -1.15)"/><path class="cls-1" d="M247.5,65.15a2.16,2.16,0,0,0,.89-.22,1.44,1.44,0,0,0,.55-.67c.45.23.78.34,1,.45a.8.8,0,0,1,.23.56,1.05,1.05,0,0,1-.78,1,5.48,5.48,0,0,1-2,.33,4.16,4.16,0,0,1-2.9-1,3.38,3.38,0,0,1-1.11-2.78,5.21,5.21,0,0,1,.33-1.89,4.23,4.23,0,0,1,.89-1.34,2.8,2.8,0,0,1,1.23-.67,5.6,5.6,0,0,1,1.33-.22,3.58,3.58,0,0,1,1.89.45,1.12,1.12,0,0,1,.89,1.11c0,.67-.55,1-1.55,1.22a1.58,1.58,0,0,0-.56-.89,1.21,1.21,0,0,0-.78-.33,1.16,1.16,0,0,0-1,.56,2.84,2.84,0,0,0-.44,1.78C245.83,64.26,246.38,65.15,247.5,65.15Z" transform="translate(-23.99 -1.15)"/><path class="cls-1" d="M252.5,54.59a2.21,2.21,0,0,1,1,.22.85.85,0,0,1,.34.78,11.54,11.54,0,0,1-.11,1.44c0,.89-.11,1.56-.11,2v.66a3.2,3.2,0,0,1,2.33-1,2.3,2.3,0,0,1,2.45,2.45v2.78a14.11,14.11,0,0,0,.22,2.34,5.65,5.65,0,0,1-1.44.22c-.89,0-1.34-.33-1.34-1v-4a2.24,2.24,0,0,0-.22-1,1,1,0,0,0-.67-.33,1.92,1.92,0,0,0-1.45.78v3a15.31,15.31,0,0,0,.12,2.45h-1c-1.11,0-1.55-.22-1.55-.78V58.37a37.32,37.32,0,0,0-.11-3.78A7.22,7.22,0,0,0,252.5,54.59Z" transform="translate(-23.99 -1.15)"/><path class="cls-1" d="M260,59a5.25,5.25,0,0,1,1.22-.23,1.18,1.18,0,0,1,1.34,1,3.2,3.2,0,0,1,2.33-1,2.3,2.3,0,0,1,2.45,2.45V64a14.11,14.11,0,0,0,.22,2.34,5.65,5.65,0,0,1-1.44.22c-.89,0-1.34-.33-1.34-1v-4a2.28,2.28,0,0,0-.22-1,1,1,0,0,0-.67-.33,2.1,2.1,0,0,0-1.45.78v3a15.31,15.31,0,0,0,.12,2.45h-1c-1.11,0-1.55-.22-1.55-.78V62.37A6.41,6.41,0,0,0,260,59Z" transform="translate(-23.99 -1.15)"/><path class="cls-1" d="M275.42,65.6a3.94,3.94,0,0,1-2.78,1.11,3.53,3.53,0,0,1-2.78-1.11,3.94,3.94,0,0,1-1.11-2.78,4,4,0,0,1,1.11-3,4,4,0,0,1,5.56,0,4.31,4.31,0,0,1,1.11,3A3.53,3.53,0,0,1,275.42,65.6Zm-1.22-2.45a3.75,3.75,0,0,0-.45-2,1.15,1.15,0,0,0-1.11-.78,1.33,1.33,0,0,0-1.11.67,3.68,3.68,0,0,0-.45,1.78,3,3,0,0,0,.45,1.78,1.22,1.22,0,0,0,1.11.67,1.38,1.38,0,0,0,1.11-.56A4.19,4.19,0,0,0,274.2,63.15Z" transform="translate(-23.99 -1.15)"/><path class="cls-1" d="M229.25,82.29v-4a27.15,27.15,0,0,0-.33-4.67c1.11-.11,2.34-.22,3.45-.22,4.23,0,6.34,1.44,6.34,4.34a5,5,0,0,1-1.22,3.44,4.05,4.05,0,0,1-3,1.23,4.45,4.45,0,0,1-2-.56v1.34a11.68,11.68,0,0,0,.44,3.56,4.12,4.12,0,0,1-1.89.33,1.89,1.89,0,0,1-1.44-.44,2.34,2.34,0,0,1-.34-1.34v-3Zm4.34-1.89a1.61,1.61,0,0,0,1.34-.67,3.21,3.21,0,0,0,.44-1.89,2.74,2.74,0,0,0-.55-1.89,3,3,0,0,0-1.9-.56,1.94,1.94,0,0,0-.66.11c0,.67.11,1.67.11,3.23v1.44A5.84,5.84,0,0,0,233.59,80.4Z" transform="translate(-23.99 -1.15)"/><path class="cls-1" d="M241.49,71.83a3.41,3.41,0,0,1,1.22.22,1.07,1.07,0,0,1,.45,1c0,.11,0,.67-.11,1.78s-.11,1.89-.11,2.45v5.56a15.25,15.25,0,0,0,.33,3.79,4.38,4.38,0,0,1-1.67.22,1.87,1.87,0,0,1-1.33-.34,1.32,1.32,0,0,1-.34-1V76.72c0-1.89,0-3.56-.11-4.78C240.38,71.94,240.93,71.83,241.49,71.83Z" transform="translate(-23.99 -1.15)"/><path class="cls-1" d="M246.72,80.62c-1.23-.22-1.78-.78-1.78-1.56,0-.56.33-1,1.11-1.33a6.77,6.77,0,0,1,2.78-.56A4.75,4.75,0,0,1,252,78a3.29,3.29,0,0,1,1,2.67V83.4a13.35,13.35,0,0,0,.33,3.45,8.7,8.7,0,0,1-1.56.22c-1,0-1.55-.33-1.66-1.11a5,5,0,0,1-1.23.89,3.94,3.94,0,0,1-1.56.33,2.8,2.8,0,0,1-1.89-.67,2.62,2.62,0,0,1-.78-2.11A2.2,2.2,0,0,1,246.27,82a15.7,15.7,0,0,1,3.67-.66,6.34,6.34,0,0,0-.22-1.78c-.22-.34-.55-.45-1.11-.45a1.76,1.76,0,0,0-1.11.45A1.66,1.66,0,0,0,246.72,80.62Zm3.34,2.11a4.92,4.92,0,0,0-.89.22c-.23.12-.45.12-.67.23a1.12,1.12,0,0,0-.56.44,1.44,1.44,0,0,0-.11.67,1.63,1.63,0,0,0,.22.78c.11.22.34.22.56.22a2.32,2.32,0,0,0,1.45-.56v-.66A2.54,2.54,0,0,1,250.06,82.73Z" transform="translate(-23.99 -1.15)"/><path class="cls-1" d="M255,77.5a4.11,4.11,0,0,1,1.56-.22c1,0,1.56.45,1.67,1.22a4.14,4.14,0,0,1,3-1.33,3,3,0,0,1,2.23.78,2.93,2.93,0,0,1,.89,2.22v3.56a12.55,12.55,0,0,0,.33,3,4.66,4.66,0,0,1-1.78.22c-1.11,0-1.67-.45-1.67-1.22,0-.45,0-1.34.11-2.67s.11-2.12.11-2.34a1.78,1.78,0,0,0-.33-1.22,1.35,1.35,0,0,0-.89-.45,2.87,2.87,0,0,0-1.89,1v3.78A26.5,26.5,0,0,0,258.4,87c-.45,0-.89.11-1.22.11-1.34,0-2-.33-2-1V81.84A14.44,14.44,0,0,0,255,77.5Z" transform="translate(-23.99 -1.15)"/><path class="cls-1" d="M267.41,83.29v-4c-.67,0-1.33.11-1.78.11a2.45,2.45,0,0,1-.11-.89c0-.77.56-1.22,1.67-1.22h.33c0-.78-.11-1.56-.11-2.11a3,3,0,0,1,1.45-.23h.89a.61.61,0,0,1,.55.34,1.06,1.06,0,0,1,.34.89,5.18,5.18,0,0,1-.11,1.11,27.5,27.5,0,0,0,3.33-.11,1.92,1.92,0,0,1,.11.89,1.08,1.08,0,0,1-1.22,1.11h-2.34c0,1.34-.11,2.67-.11,4V84a1.63,1.63,0,0,0,.11.66c.12.23.12.45.34.56a.82.82,0,0,0,.55.11,2.68,2.68,0,0,0,1.67-.56c.56.45.78.78.78,1.23a1,1,0,0,1-.67.89,3.72,3.72,0,0,1-1.66.33,4,4,0,0,1-3.12-1A3.93,3.93,0,0,1,267.41,83.29Z" transform="translate(-23.99 -1.15)"/><path d="M34.05,42.94V25a69.53,69.53,0,0,0-9.7.36A20.3,20.3,0,0,1,24,22.81c0-.72,0-1.08.36-1.44s.71-.72,1.07-.72,1.08-.35,1.44-.35H39.8c5.75,0,9.71,0,11.86-.36,0,.71.36,1.43.36,2.51,0,1.8-1.43,2.88-4,2.88H42.32c0,3.23-.36,6.47-.36,9.7v9.71A37,37,0,0,0,43,54.08a21.24,21.24,0,0,1-5,.72c-1.8,0-2.88-.36-3.6-1.07a4.4,4.4,0,0,1-1.08-3.24V47.25A11.55,11.55,0,0,0,34.05,42.94Z" transform="translate(-23.99 -1.15)"/><path d="M66.76,28.92a12.4,12.4,0,0,1,6.47,1.8,7,7,0,0,1,2.88,5.75c0,5-3.6,7.55-11.15,7.55H61.37a5.71,5.71,0,0,0,1.44,4.31,6.37,6.37,0,0,0,3.59,1.44,7.38,7.38,0,0,0,6.11-2.52,3.59,3.59,0,0,1,1.8,1.44,6.08,6.08,0,0,1,.72,1.8c0,1.08-.72,1.8-1.8,2.52a6.9,6.9,0,0,1-3.59,1.07c-1.08,0-2.16.36-3.24.36a13.4,13.4,0,0,1-9.34-3.23c-2.52-2.16-3.6-5.39-3.6-9.71a11.41,11.41,0,0,1,2.16-7.19c1.44-2.15,2.87-3.59,5-4.31A15.5,15.5,0,0,1,66.76,28.92Zm-.36,5a4.28,4.28,0,0,0-3.23,1.8c-1.08,1.08-1.44,2.88-1.44,5h2.16a4,4,0,0,0,1.79-.35c.72,0,1.44-.36,1.44-.72l1.08-1.08a3.9,3.9,0,0,0,.36-2.16A1.87,1.87,0,0,0,67.84,35C67.12,34.31,66.76,34,66.4,34Z" transform="translate(-23.99 -1.15)"/><path d="M92.28,49.77a6.78,6.78,0,0,0,2.88-.72A4.83,4.83,0,0,0,97,46.9c1.43.71,2.51,1.07,3.23,1.43a2.75,2.75,0,0,1,.72,1.8c0,1.44-.72,2.52-2.52,3.24a17.56,17.56,0,0,1-6.47,1.07,13.4,13.4,0,0,1-9.34-3.23c-2.52-2.16-3.6-5-3.6-9a16.8,16.8,0,0,1,1.08-6.11,12.9,12.9,0,0,1,2.88-4.31,8.55,8.55,0,0,1,4-2.16,18.07,18.07,0,0,1,4.32-.72,11.82,11.82,0,0,1,6.11,1.44A3.67,3.67,0,0,1,100.19,34c0,2.16-1.8,3.24-5,4A5,5,0,0,0,93.36,35,3.89,3.89,0,0,0,90.85,34a3.78,3.78,0,0,0-3.24,1.8c-1.08,1.44-1.44,3.24-1.44,5.75C86.89,46.9,88.69,49.77,92.28,49.77Z" transform="translate(-23.99 -1.15)"/><path d="M108.46,15.62a7.11,7.11,0,0,1,3.23.72,2.8,2.8,0,0,1,1.08,2.52,37,37,0,0,1-.36,4.67c0,2.88-.36,5-.36,6.47v2.16a10.36,10.36,0,0,1,7.55-3.24,7.43,7.43,0,0,1,7.91,7.91v9a44.91,44.91,0,0,0,.72,7.55,18.24,18.24,0,0,1-4.67.71c-2.88,0-4.32-1.07-4.32-3.23V37.91a7.19,7.19,0,0,0-.72-3.24,3.06,3.06,0,0,0-2.15-1.07,6.15,6.15,0,0,0-4.68,2.51v9.71a53.17,53.17,0,0,0,.36,7.91h-3.23c-3.6,0-5-.72-5-2.52V27.84a119.4,119.4,0,0,0-.36-12.22A23.23,23.23,0,0,0,108.46,15.62Z" transform="translate(-23.99 -1.15)"/><path d="M132.54,30a18.58,18.58,0,0,1,4-.72q3.76,0,4.31,3.24a10.34,10.34,0,0,1,7.55-3.24,7.43,7.43,0,0,1,7.91,7.91v9a44.91,44.91,0,0,0,.72,7.55,18.7,18.7,0,0,1-4.68.71c-2.87,0-4.31-1.07-4.31-3.23V38.27a7.19,7.19,0,0,0-.72-3.24A3.11,3.11,0,0,0,145.12,34c-1.43,0-2.87.72-4.67,2.52v9.71a53,53,0,0,0,.36,7.9h-3.23c-3.6,0-5-.71-5-2.51V40.78C133.62,35.39,133.26,31.8,132.54,30Z" transform="translate(-23.99 -1.15)"/><path d="M182.51,51.21a12.75,12.75,0,0,1-9,3.59c-3.59,0-6.83-1.07-9-3.59a12.8,12.8,0,0,1-3.59-9c0-3.95,1.08-7.19,3.59-9.7,2.16-2.52,5.4-3.6,9-3.6s6.83,1.08,9,3.6a13.94,13.94,0,0,1,3.59,9.7C186.1,45.82,185,49.05,182.51,51.21Zm-4-7.91a12.39,12.39,0,0,0-1.43-6.47,3.75,3.75,0,0,0-3.6-2.52c-1.44,0-2.52.72-3.59,2.16a12.26,12.26,0,0,0-1.44,5.75A9.76,9.76,0,0,0,169.93,48a3.94,3.94,0,0,0,3.59,2.16,4.43,4.43,0,0,0,3.6-1.8C177.83,46.54,178.55,45.1,178.55,43.3Z" transform="translate(-23.99 -1.15)"/><path d="M33.33,95.58V82.64a86.67,86.67,0,0,0-1.08-15.09c3.6-.36,7.55-.72,11.15-.72q20.49,0,20.49,14a16.18,16.18,0,0,1-4,11.14,13,13,0,0,1-9.7,4,14.71,14.71,0,0,1-6.47-1.79v4.31A37.54,37.54,0,0,0,45.19,110,13.21,13.21,0,0,1,39.08,111c-2.15,0-3.59-.36-4.67-1.44a7.64,7.64,0,0,1-1.08-4.31V95.58Zm14-6.11a5.12,5.12,0,0,0,4.31-2.15c1.08-1.44,1.44-3.6,1.44-6.11,0-2.88-.72-5-1.79-6.12a9.59,9.59,0,0,0-6.12-1.79,6.29,6.29,0,0,0-2.15.36c0,2.15.36,5.39.36,10.42v4.67A18.39,18.39,0,0,0,47.35,89.47Z" transform="translate(-23.99 -1.15)"/><path d="M72.87,61.79a11.11,11.11,0,0,1,4,.72,3.5,3.5,0,0,1,1.43,3.24c0,.36,0,2.16-.35,5.75,0,3.59-.36,6.11-.36,7.91v18c0,5.75.36,9.71,1.07,12.22a13.92,13.92,0,0,1-5.39.72c-2.15,0-3.59-.36-4.31-1.08A4.38,4.38,0,0,1,67.84,106V77.61c0-6.11,0-11.5-.36-15.46C69.28,62.15,71.08,61.79,72.87,61.79Z" transform="translate(-23.99 -1.15)"/><path d="M89.77,90.19c-4-.72-5.75-2.51-5.75-5,0-1.8,1.07-3.24,3.59-4.31a22.18,22.18,0,0,1,9-1.8c4.67,0,7.91.72,10.06,2.51s3.24,4.68,3.24,8.63v9A42.53,42.53,0,0,0,111,110.32a28.24,28.24,0,0,1-5,.72c-3.23,0-5-1.08-5.39-3.59a16.34,16.34,0,0,1-4,2.87,12.71,12.71,0,0,1-5,1.08,9.08,9.08,0,0,1-6.11-2.16c-1.79-1.43-2.51-3.95-2.51-6.83,0-2.51.36-4.31,1.44-5.39a7.43,7.43,0,0,1,4-2.51,50,50,0,0,1,11.86-2.16,20.32,20.32,0,0,0-.72-5.75c-.72-1.08-1.79-1.44-3.59-1.44a5.82,5.82,0,0,0-3.6,1.44A5.52,5.52,0,0,0,89.77,90.19ZM100.55,97a15.94,15.94,0,0,0-2.87.72c-.72.36-1.44.36-2.16.72a3.59,3.59,0,0,0-1.8,1.44,4.55,4.55,0,0,0-.36,2.15,5.2,5.2,0,0,0,.72,2.52c.36.72,1.08.72,1.8.72a7.56,7.56,0,0,0,4.67-1.8v-2.15A8.77,8.77,0,0,1,100.55,97Z" transform="translate(-23.99 -1.15)"/><path d="M116.37,80.13a13,13,0,0,1,5-.72c3.23,0,5,1.44,5.39,4a13.44,13.44,0,0,1,9.71-4.31,9.83,9.83,0,0,1,7.19,2.51,9.49,9.49,0,0,1,2.87,7.19v11.51a40,40,0,0,0,1.08,9.7,14.87,14.87,0,0,1-5.75.72c-3.6,0-5.39-1.44-5.39-4,0-1.44,0-4.32.36-8.63,0-4.31.36-6.83.36-7.55a5.76,5.76,0,0,0-1.08-4,4.44,4.44,0,0,0-2.88-1.44c-1.8,0-3.95,1.08-6.11,3.23v12.23a84.33,84.33,0,0,0,.36,10.06c-1.44,0-2.88.36-4,.36-4.32,0-6.47-1.08-6.47-3.23V94.15C117.45,87,117.09,82.28,116.37,80.13Z" transform="translate(-23.99 -1.15)"/><path d="M156.63,98.82V85.88c-2.16,0-4.32.36-5.75.36a7.93,7.93,0,0,1-.36-2.88c0-2.51,1.79-4,5.39-4H157c0-2.52-.36-5-.36-6.83a9.82,9.82,0,0,1,4.67-.72h2.88A2,2,0,0,1,166,72.94a3.53,3.53,0,0,1,1.08,2.87,16.53,16.53,0,0,1-.36,3.6,87.87,87.87,0,0,0,10.78-.36,6.16,6.16,0,0,1,.36,2.87c0,2.16-1.43,3.6-4,3.6h-7.55c0,4.31-.36,8.63-.36,12.94V101a5.33,5.33,0,0,0,.36,2.15c.36.72.36,1.44,1.08,1.8a2.7,2.7,0,0,0,1.8.36,8.83,8.83,0,0,0,5.39-1.8c1.8,1.44,2.52,2.52,2.52,4a3.38,3.38,0,0,1-2.16,2.87,12,12,0,0,1-5.39,1.08c-4.68,0-8.27-1.08-10.07-3.24C157.35,106,156.63,102.77,156.63,98.82Z" transform="translate(-23.99 -1.15)"/></svg>