<svg id="Layer_1" data-name="Layer 1" xmlns="http://www.w3.org/2000/svg" viewBox="0 0 313.6 167.1"><defs><style>.cls-1,.cls-2{fill:#b2d336;}.cls-2{fill-rule:evenodd;}</style></defs><path class="cls-1" d="M8.3,121.1a96.65,96.65,0,0,0,3,11.2c.6,1.8,1.3,3.6,2,5.3a45.9,45.9,0,0,0,2.4,5,40.05,40.05,0,0,0,6.1,8.9,29.46,29.46,0,0,0,8.2,6.3l1.2.6a6.12,6.12,0,0,0,1.2.5c.4.2.8.3,1.2.5l.6.2.7.3a28.26,28.26,0,0,0,5,1.3,38.29,38.29,0,0,0,10.7.4,31,31,0,0,0,5.3-1l.7-.2a6.37,6.37,0,0,1,.7-.2c.4-.1.9-.3,1.3-.4s.9-.3,1.3-.5a6.94,6.94,0,0,1,1.3-.5,40.91,40.91,0,0,0,5.1-2.6c1.7-1,3.3-2.1,4.9-3.2-.3.4-.5.8-.8,1.2-.1.2-.3.4-.4.6l-.5.6-.9,1.2c-.3.4-.7.7-1,1.1a29.35,29.35,0,0,1-4.6,4,14.63,14.63,0,0,1-1.3.9c-.4.3-.9.5-1.3.8a6.11,6.11,0,0,1-1.4.7,2.51,2.51,0,0,0-.7.4l-.7.3a31.93,31.93,0,0,1-5.9,2.1,34.93,34.93,0,0,1-18.9-.7l-.7-.2-.8-.3-1.5-.6-1.5-.6c-.5-.2-1-.5-1.5-.7a31.51,31.51,0,0,1-9.9-8.2,38,38,0,0,1-6.1-10.9A27,27,0,0,1,9,139l-.6-3c-.2-1-.3-2-.4-3a40.12,40.12,0,0,1-.2-6A28.79,28.79,0,0,1,8.3,121.1Z" transform="translate(-2.5 -0.77)"/><path class="cls-2" d="M128.3,71.8c8.4,16,6.9,39.9-9.5,45.2-15.2,5-39.9-.9-45.3,30.1,11.5-19.4,29.6-21,41.6-22.5,22.2-2.7,35.5-33.2,13.2-52.8" transform="translate(-2.5 -0.77)"/><path class="cls-2" d="M97.9,24.2c17.3,5.4,33,23.4,25.2,38.7-7.3,14.3-29,27.6-10.8,53.4-5.6-21.9,6.1-35.8,13.5-45.4,13.9-17.6,1.8-48.7-27.9-46.7" transform="translate(-2.5 -0.77)"/><path class="cls-2" d="M42.8,12.3c16-8.4,39.9-6.9,45.2,9.5,5,15.2-.9,39.9,30.1,45.3-19.4-11.5-21-29.6-22.5-41.6C92.8,3.3,62.3-10.1,42.8,12.3" transform="translate(-2.5 -0.77)"/><path class="cls-2" d="M89.7,153.9" transform="translate(-2.5 -0.77)"/><path class="cls-2" d="M87.2,154.2" transform="translate(-2.5 -0.77)"/><path class="cls-2" d="M116.1,126.8C110.9,144,93,160,77.6,152.3c-14.3-7.1-27.8-28.7-53.4-10.3,21.8-5.7,35.8,5.8,45.4,13.1,17.8,13.6,48.7,1.3,46.5-28.3" transform="translate(-2.5 -0.77)"/><path class="cls-2" d="M112.6,38.8l-7.7,4.7a.8.8,0,0,1-1.1-.3h0a.8.8,0,0,1,.3-1.1l7.7-4.7a.8.8,0,0,1,1.1.3h0A.8.8,0,0,1,112.6,38.8Z" transform="translate(-2.5 -0.77)"/><path class="cls-2" d="M119.4,50.1l-7.7,4.7a.8.8,0,0,1-1.1-.3h0a.8.8,0,0,1,.3-1.1l7.7-4.7a.8.8,0,0,1,1.1.3h0A.8.8,0,0,1,119.4,50.1Z" transform="translate(-2.5 -0.77)"/><path class="cls-2" d="M117.6,43.5l-10.9,6.6a.8.8,0,0,1-1.1-.3h0a.8.8,0,0,1,.3-1.1l10.9-6.6a.8.8,0,0,1,1.1.3h0A.8.8,0,0,1,117.6,43.5Z" transform="translate(-2.5 -0.77)"/><path class="cls-2" d="M40.1,145.7l-2.3,8.7a.89.89,0,0,1-1,.6h0a.89.89,0,0,1-.6-1l2.3-8.7a.89.89,0,0,1,1-.6h0A.8.8,0,0,1,40.1,145.7Z" transform="translate(-2.5 -0.77)"/><path class="cls-2" d="M52.9,149.1l-2.3,8.7a.89.89,0,0,1-1,.6h0a.89.89,0,0,1-.6-1l2.3-8.7a.89.89,0,0,1,1-.6h0A.83.83,0,0,1,52.9,149.1Z" transform="translate(-2.5 -0.77)"/><path class="cls-2" d="M47,145.6l-3.3,12.3a.89.89,0,0,1-1,.6h0a.89.89,0,0,1-.6-1l3.3-12.3a.89.89,0,0,1,1-.6h0A.89.89,0,0,1,47,145.6Z" transform="translate(-2.5 -0.77)"/><path class="cls-2" d="M66.1,14l-3.7,8.2a.84.84,0,0,1-1.1.4h0a.84.84,0,0,1-.4-1.1l3.7-8.2a.84.84,0,0,1,1.1-.4h0A.84.84,0,0,1,66.1,14Z" transform="translate(-2.5 -0.77)"/><path class="cls-2" d="M78.2,19.4l-3.7,8.2a.84.84,0,0,1-1.1.4h0a.7.7,0,0,1-.4-1l3.7-8.2a.84.84,0,0,1,1.1-.4h0A.7.7,0,0,1,78.2,19.4Z" transform="translate(-2.5 -0.77)"/><path class="cls-2" d="M72.9,15,67.7,26.6a.84.84,0,0,1-1.1.4h0a.84.84,0,0,1-.4-1.1l5.2-11.6a.84.84,0,0,1,1.1-.4h0A.84.84,0,0,1,72.9,15Z" transform="translate(-2.5 -0.77)"/><path class="cls-2" d="M128.7,92.1l-8.6-2.9a.75.75,0,0,1-.5-1h0a.75.75,0,0,1,1-.5l8.6,2.9a.75.75,0,0,1,.5,1h0A.78.78,0,0,1,128.7,92.1Z" transform="translate(-2.5 -0.77)"/><path class="cls-2" d="M124.6,104.6l-8.6-2.9a.75.75,0,0,1-.5-1h0a.75.75,0,0,1,1-.5l8.6,2.9a.75.75,0,0,1,.5,1h0C125.4,104.5,125,104.8,124.6,104.6Z" transform="translate(-2.5 -0.77)"/><path class="cls-2" d="M128.4,99l-12.1-4a.75.75,0,0,1-.5-1h0a.75.75,0,0,1,1-.5l12.1,4a.75.75,0,0,1,.5,1h0A.83.83,0,0,1,128.4,99Z" transform="translate(-2.5 -0.77)"/><path class="cls-2" d="M96.7,133.4l5.1,7.5a.73.73,0,0,0,1.1.2h0a.73.73,0,0,0,.2-1.1L98,132.5a.73.73,0,0,0-1.1-.2h0A.89.89,0,0,0,96.7,133.4Z" transform="translate(-2.5 -0.77)"/><path class="cls-2" d="M85.8,140.8l5.1,7.5a.73.73,0,0,0,1.1.2h0a.73.73,0,0,0,.2-1.1l-5.1-7.5a.73.73,0,0,0-1.1-.2h0A.71.71,0,0,0,85.8,140.8Z" transform="translate(-2.5 -0.77)"/><path class="cls-2" d="M90.2,135.6l7.1,10.6a.73.73,0,0,0,1.1.2h0a.73.73,0,0,0,.2-1.1l-7.1-10.6a.73.73,0,0,0-1.1-.2h0A.89.89,0,0,0,90.2,135.6Z" transform="translate(-2.5 -0.77)"/><path class="cls-1" d="M39.6,41.1A40.28,40.28,0,0,0,29.2,54.9h0l-.4.1c.4-2.3,1-11-6.9-22.4a1.76,1.76,0,0,0-.4-.5c-.8-1.1-5.9-8.6-2.7-21,0,0-6.9,8.6-1.8,19.2,0,0-8.3-2.1-11.5,4.6,0,0,1.9-.9,3.1-.1a1.61,1.61,0,0,0,.7.4c1.2.5,4.4,1.4,6.4-1.5,0,0-.6-1.4-3.5-1.4,0,0,5.6-1.4,7.5,1.9,0,0,7,8.2,6.6,21.8,0,0-8.5-19.1-23.8-11a4.48,4.48,0,0,1,4,2.8,6.15,6.15,0,0,0,1.2,1.9c1.8,2,5.8,5.3,11.3,2.1A8,8,0,0,0,13.1,47s9.4-.1,12.2,15l-1.8,53.6a1.58,1.58,0,0,0,1.6,1.6h0a1.58,1.58,0,0,0,1.6-1.6c.1-7.2.5-37.1,1.4-46.5,0,0,.2-5.4,1.2-7.2C42.2,38.1,68.4,38.6,68.4,38.6,48,39.6,32.5,58.1,32.5,58.1c6.2-2.7,15.6.1,15.6.1,8.6,2.9,15.3-.4,19.6-4a27.08,27.08,0,0,0,6.7-8.7c4.3-8.9,11.9-8.1,11.9-8.1C64,27.1,48.8,33.2,39.6,41.1Z" transform="translate(-2.5 -0.77)"/><path class="cls-1" d="M35.9,70.2H14a2,2,0,0,1-2-2h0a2,2,0,0,1,2-2H35.9a2,2,0,0,1,2,2h0A1.94,1.94,0,0,1,35.9,70.2Z" transform="translate(-2.5 -0.77)"/><path class="cls-1" d="M25,132.7h0a11.14,11.14,0,0,1-11.1-11.1V71.8H36.1v49.8A11.07,11.07,0,0,1,25,132.7Z" transform="translate(-2.5 -0.77)"/><path d="M172.1,43.5c.1,2.3.1,4.9.1,7.8V67a4.89,4.89,0,0,0,.9,3.2,4.11,4.11,0,0,0,3.2,1.1,14.05,14.05,0,0,0,4.7-.7,29.26,29.26,0,0,1-1.2-8.8V52.6c0-2.9.1-6,.2-9.1h5.6c2.5,0,3.7-.9,3.7-2.8a15,15,0,0,0-.2-2.2c-2,.1-5.7.2-11.2.2H167.4a10.32,10.32,0,0,0-1.9.1,7,7,0,0,0-1.4.3,1.88,1.88,0,0,0-1.1.8,3.34,3.34,0,0,0-.3,1.5,12.53,12.53,0,0,0,.2,2.4C164.9,43.6,167.9,43.5,172.1,43.5Z" transform="translate(-2.5 -0.77)"/><path d="M210.6,66.1a4.89,4.89,0,0,0-1.8-1.4,6.78,6.78,0,0,1-5.6,2.3,4.52,4.52,0,0,1-3.4-1.3,5.33,5.33,0,0,1-1.4-4.1c1.6.1,2.8.1,3.4.1,6.9,0,10.4-2.4,10.4-7.3a6.21,6.21,0,0,0-2.6-5.4,11.09,11.09,0,0,0-6.3-1.8,14.82,14.82,0,0,0-5.9,1.2,11.17,11.17,0,0,0-4.6,4.1,11.9,11.9,0,0,0-1.9,6.9c0,4.1,1.1,7.1,3.4,9a12.87,12.87,0,0,0,8.8,3c1,0,2.1-.1,3.2-.2a9.62,9.62,0,0,0,3.4-1.1,2.57,2.57,0,0,0,1.7-2.3A2.91,2.91,0,0,0,210.6,66.1ZM199.7,53.5a3.84,3.84,0,0,1,3.1-1.6,1.61,1.61,0,0,1,1.3.6,1.87,1.87,0,0,1,.5,1.4,3.58,3.58,0,0,1-.4,1.9,6.23,6.23,0,0,1-.9,1.2,3.49,3.49,0,0,1-1.5.7,6.13,6.13,0,0,1-1.6.3c-.4,0-1,.1-1.9.2A7.31,7.31,0,0,1,199.7,53.5Z" transform="translate(-2.5 -0.77)"/><path d="M227.1,71.6a14.79,14.79,0,0,0,6.1-1.1,3.42,3.42,0,0,0,2.4-3.1,2.41,2.41,0,0,0-.7-1.8,7.51,7.51,0,0,0-2.9-1.5,3.69,3.69,0,0,1-1.8,2.1,6,6,0,0,1-2.9.8c-3.3,0-5-2.5-5-7.6,0-2.4.4-4.2,1.3-5.4a3.81,3.81,0,0,1,3.1-1.8,3.64,3.64,0,0,1,2.5,1,4.91,4.91,0,0,1,1.6,2.7q4.8-.6,4.8-3.6c0-1.5-.9-2.7-2.8-3.5a15.3,15.3,0,0,0-5.9-1.3,12.34,12.34,0,0,0-4.2.7,12.16,12.16,0,0,0-3.8,2.2,11.18,11.18,0,0,0-2.9,4,14.85,14.85,0,0,0-1.1,5.7c0,3.7,1.1,6.5,3.3,8.5A13.46,13.46,0,0,0,227.1,71.6Z" transform="translate(-2.5 -0.77)"/><path d="M246.7,71q-.3-3.3-.3-7.5c0-1.9,0-4.9-.1-9.1,1.7-1.6,3.2-2.4,4.6-2.4a2.64,2.64,0,0,1,2.1,1,5.1,5.1,0,0,1,.8,3c0,.7-.1,2.6-.2,5.7s-.2,5.3-.2,6.5q0,3,3.9,3a15.93,15.93,0,0,0,4.3-.6,25.09,25.09,0,0,1-.8-7.2c0-1.2,0-2.9.1-5.2s.1-3.5.1-3.5a6.6,6.6,0,0,0-2.2-5.4,7.84,7.84,0,0,0-5.5-1.9,10,10,0,0,0-7,2.9V48.1c0-1.3.1-3.4.2-6s.2-4.1.2-4.3a2.69,2.69,0,0,0-1-2.5,6,6,0,0,0-2.9-.6,13.36,13.36,0,0,0-4,.6c.2,3,.3,6.8.3,11.5v12c0,2.3,0,4.5-.1,6.7s-.1,3.3-.1,3.4c0,1.6,1.6,2.3,4.9,2.3C244.7,71.2,245.6,71.1,246.7,71Z" transform="translate(-2.5 -0.77)"/><path d="M266.3,65.4c-.1,2.2-.1,3.3-.1,3.4,0,1.6,1.6,2.3,4.9,2.3.9,0,1.8,0,2.9-.1-.2-2.2-.2-4.7-.2-7.5,0-1.9,0-4.9-.1-9.1q2.55-2.4,4.5-2.4a2.39,2.39,0,0,1,2.1,1,5.1,5.1,0,0,1,.8,3c0,.7,0,2.6-.1,5.7s-.1,5.3-.1,6.5q0,3,3.9,3a15.93,15.93,0,0,0,4.3-.6,25.09,25.09,0,0,1-.8-7.2c0-1.2,0-2.9.1-5.2s.1-3.5.1-3.5a6.6,6.6,0,0,0-2.2-5.4,7.84,7.84,0,0,0-5.5-1.9,10.36,10.36,0,0,0-7.3,3.2c-.3-1.9-1.7-2.9-4.1-2.9a13.06,13.06,0,0,0-3.8.6c.6,1.6.9,5.1.9,10.4C266.5,61,266.4,63.2,266.3,65.4Z" transform="translate(-2.5 -0.77)"/><path d="M312.8,50.7a11.38,11.38,0,0,0-8.6-3.4,11.23,11.23,0,0,0-8.6,3.4,12.32,12.32,0,0,0-3.3,9,11.17,11.17,0,0,0,11.9,11.8,11.86,11.86,0,0,0,8.6-3.2,11.53,11.53,0,0,0,3.3-8.6Q316.1,54,312.8,50.7Zm-5.2,14.4a4,4,0,0,1-3.4,1.7,3.67,3.67,0,0,1-3.3-2.1,10.8,10.8,0,0,1-1.2-5.4,10.4,10.4,0,0,1,1.2-5.3,3.63,3.63,0,0,1,6.7.5,14.28,14.28,0,0,1,1.2,6.2A7.39,7.39,0,0,1,307.6,65.1Z" transform="translate(-2.5 -0.77)"/><path d="M173.3,91.8a75.49,75.49,0,0,0-10.6.7,92.19,92.19,0,0,1,.9,14.2v12.4c0,1.5,0,3.2-.1,5.2s-.1,3.3-.1,4a6.56,6.56,0,0,0,1.1,4c.7.9,2.1,1.4,4.2,1.4a14.31,14.31,0,0,0,5.8-.9,36.12,36.12,0,0,1-1.5-11v-4.1a12.06,12.06,0,0,0,6.3,1.8,13,13,0,0,0,9.3-3.8c2.6-2.6,3.9-6,3.9-10.5C192.5,96.3,186.1,91.8,173.3,91.8Zm7.6,19.5a4.81,4.81,0,0,1-4.1,2.1,9.08,9.08,0,0,1-3.7-.9v-4.3c0-4.7-.1-8-.2-9.9a7.88,7.88,0,0,1,2-.2c2.6,0,4.5.5,5.8,1.6s1.9,3.1,1.9,5.9A11.31,11.31,0,0,1,180.9,111.3Z" transform="translate(-2.5 -0.77)"/><path d="M205.3,104.5c0-1.7.1-4.2.2-7.6s.2-5.2.2-5.5c0-1.6-.4-2.6-1.3-3.1a7.53,7.53,0,0,0-3.7-.8,16.36,16.36,0,0,0-5,.8c.3,3.7.4,8.6.4,14.5v17.1c0,1.4,0,3.2-.1,5.5s-.1,3.7-.1,4.3a4.08,4.08,0,0,0,1.1,3c.8.7,2.1,1,4.1,1a18.07,18.07,0,0,0,5.1-.8c-.7-2.2-1.1-6-1.1-11.4v-17Z" transform="translate(-2.5 -0.77)"/><path d="M236.1,117.8c0-2.1.1-3.3.1-3.6,0-3.8-1-6.6-3.1-8.2s-5.3-2.5-9.6-2.5a20.6,20.6,0,0,0-8.6,1.7c-2.4,1.1-3.6,2.6-3.6,4.2,0,2.4,1.8,4,5.4,4.7a6.65,6.65,0,0,1,2.6-3.5,5.57,5.57,0,0,1,3.3-1.3c1.8,0,2.9.5,3.5,1.5s.8,2.8.8,5.3a49.18,49.18,0,0,0-11.2,1.9,8.58,8.58,0,0,0-3.8,2.4,8,8,0,0,0-1.4,5.1c0,2.9.8,5.1,2.3,6.5a8,8,0,0,0,5.7,2.2,11.36,11.36,0,0,0,4.7-1,10.86,10.86,0,0,0,3.8-2.7c.5,2.4,2.2,3.6,5.2,3.6a17.94,17.94,0,0,0,4.8-.7c-.8-2.4-1.2-5.9-1.2-10.6C236,121.5,236,119.9,236.1,117.8Zm-9.3,9a6.26,6.26,0,0,1-4.3,1.5,2.73,2.73,0,0,1-1.9-.8,3.17,3.17,0,0,1-.7-2.3,4.65,4.65,0,0,1,.5-2.1,3.21,3.21,0,0,1,1.6-1.4c.8-.3,1.5-.6,2.1-.8a25.68,25.68,0,0,1,2.8-.6c-.1,1.5-.2,3-.2,4.4A9.85,9.85,0,0,0,226.8,126.8Z" transform="translate(-2.5 -0.77)"/><path d="M270.5,117.3c.1-2.9.1-4.4.1-4.5a8.75,8.75,0,0,0-2.7-6.9,10,10,0,0,0-6.9-2.4,12.68,12.68,0,0,0-9.2,4c-.4-2.4-2.1-3.7-5.1-3.7a17.2,17.2,0,0,0-4.8.8c.8,2,1.2,6.4,1.2,13.1,0,2.9-.1,5.8-.2,8.5s-.2,4.2-.2,4.3c0,2,2.1,3,6.2,3,1.1,0,2.3-.1,3.7-.2-.2-2.7-.3-5.9-.3-9.5,0-2.4,0-6.2-.1-11.5,2.1-2,4-3.1,5.7-3.1a2.93,2.93,0,0,1,2.6,1.3,5.76,5.76,0,0,1,1,3.8c0,.8-.1,3.2-.2,7.2s-.2,6.7-.2,8.2c0,2.5,1.7,3.8,5,3.8a20.17,20.17,0,0,0,5.4-.8,33.54,33.54,0,0,1-1.1-9C270.4,122.4,270.5,120.2,270.5,117.3Z" transform="translate(-2.5 -0.77)"/><path d="M296.1,109.8c2.4-.1,3.7-1.3,3.7-3.5a6.38,6.38,0,0,0-.4-2.7,88.19,88.19,0,0,1-10.2.5c.1-1.7.2-2.8.2-3.4a3.57,3.57,0,0,0-.9-2.6,3.23,3.23,0,0,0-1.9-1,16.12,16.12,0,0,0-2.6-.2,12.46,12.46,0,0,0-4.5.8c.2,1.7.3,3.8.4,6.3H279c-3.3,0-5,1.2-5,3.7a8.51,8.51,0,0,0,.5,2.6,41.5,41.5,0,0,1,5.5-.4v12.4c0,3.9.9,6.9,2.8,8.9s5.1,3,9.6,3a11.3,11.3,0,0,0,5.1-1.1,3.23,3.23,0,0,0,2.1-2.8c0-1.2-.8-2.4-2.5-3.6a7,7,0,0,1-5,1.8,3.2,3.2,0,0,1-1.8-.5,2.62,2.62,0,0,1-1-1.6,7.39,7.39,0,0,1-.3-1.9c0-.5-.1-1.3-.1-2.3,0-4.1.1-8.2.2-12.2C292.2,109.9,294.6,109.9,296.1,109.8Z" transform="translate(-2.5 -0.77)"/></svg>