<svg id="Layer_1" data-name="Layer 1" xmlns="http://www.w3.org/2000/svg" viewBox="0 0 276.47 119.44"><defs><style>.cls-1,.cls-2{fill:#b2d336;}.cls-2{fill-rule:evenodd;}</style></defs><path class="cls-1" d="M206.6,87.8a67.1,67.1,0,0,0,2.2,8c.4,1.3.9,2.6,1.4,3.8s1.1,2.4,1.7,3.6a28.4,28.4,0,0,0,4.4,6.3,21.06,21.06,0,0,0,5.8,4.5c.3.1.5.3.8.4a5.94,5.94,0,0,1,.8.4l.9.3.4.2.5.2a21.07,21.07,0,0,0,3.6.9,27.7,27.7,0,0,0,7.6.3,25.34,25.34,0,0,0,3.8-.7l.5-.1c.2,0,.3-.1.5-.1l.9-.3.9-.3c.3-.1.6-.3.9-.4a30.21,30.21,0,0,0,3.6-1.8c1.2-.7,2.3-1.5,3.5-2.3l-.6.9c-.1.1-.2.3-.3.4l-.3.4a2.7,2.7,0,0,1-.7.8c-.2.3-.5.5-.7.8a31.09,31.09,0,0,1-3.3,2.9l-.9.6-.9.6a3.13,3.13,0,0,1-1,.5c-.2.1-.3.2-.5.3l-.5.2a29.91,29.91,0,0,1-4.2,1.5,24.74,24.74,0,0,1-9,.5,24.24,24.24,0,0,1-4.5-1l-.5-.2-.5-.2c-.4-.1-.7-.3-1.1-.4a5.36,5.36,0,0,1-1.1-.5c-.3-.2-.7-.3-1-.5a22.43,22.43,0,0,1-7.1-5.9,28.51,28.51,0,0,1-4.3-7.8,33.11,33.11,0,0,1-1.2-4.2,15.52,15.52,0,0,1-.4-2.1l-.3-2.1c-.1-1.4-.2-2.9-.2-4.3A19.63,19.63,0,0,1,206.6,87.8Z" transform="translate(-23.99 -1.87)"/><path class="cls-2" d="M292.2,52.6c6,11.4,4.9,28.4-6.8,32.3-10.9,3.6-28.5-.7-32.3,21.5,8.2-13.9,21.1-15,29.7-16.1,15.9-2,25.4-23.8,9.4-37.7" transform="translate(-23.99 -1.87)"/><path class="cls-2" d="M270.6,18.6c12.3,3.8,23.6,16.7,18,27.7-5.2,10.2-20.7,19.7-7.7,38.1-4-15.6,4.4-25.6,9.7-32.4,9.8-12.6,1.1-34.8-20-33.4" transform="translate(-23.99 -1.87)"/><path class="cls-2" d="M231.2,10.1c11.4-6,28.4-4.9,32.3,6.8,3.6,10.9-.7,28.5,21.5,32.3-13.9-8.2-15-21.1-16.1-29.7-2-15.8-23.8-25.4-37.7-9.4" transform="translate(-23.99 -1.87)"/><path class="cls-2" d="M264.7,111.2" transform="translate(-23.99 -1.87)"/><path class="cls-2" d="M262.9,111.4" transform="translate(-23.99 -1.87)"/><path class="cls-2" d="M283.5,91.8C279.8,104.1,267,115.5,256,110c-10.2-5.1-19.9-20.5-38.1-7.4,15.6-4.1,25.6,4.1,32.4,9.4,12.8,9.8,34.8.9,33.2-20.2" transform="translate(-23.99 -1.87)"/><path class="cls-2" d="M281,29.1l-5.5,3.3a.54.54,0,0,1-.8-.2h0a.54.54,0,0,1,.2-.8l5.5-3.3a.54.54,0,0,1,.8.2h0A.55.55,0,0,1,281,29.1Z" transform="translate(-23.99 -1.87)"/><path class="cls-2" d="M285.9,37.1l-5.5,3.3a.54.54,0,0,1-.8-.2h0a.54.54,0,0,1,.2-.8l5.5-3.3a.54.54,0,0,1,.8.2h0A.52.52,0,0,1,285.9,37.1Z" transform="translate(-23.99 -1.87)"/><path class="cls-2" d="M284.6,32.4l-7.8,4.7a.54.54,0,0,1-.8-.2h0a.54.54,0,0,1,.2-.8l7.8-4.7a.54.54,0,0,1,.8.2h0A.54.54,0,0,1,284.6,32.4Z" transform="translate(-23.99 -1.87)"/><path class="cls-2" d="M229.3,105.3l-1.7,6.2a.57.57,0,0,1-.7.4h0a.57.57,0,0,1-.4-.7l1.7-6.2a.57.57,0,0,1,.7-.4h0A.57.57,0,0,1,229.3,105.3Z" transform="translate(-23.99 -1.87)"/><path class="cls-2" d="M238.4,107.7l-1.7,6.2a.57.57,0,0,1-.7.4h0a.57.57,0,0,1-.4-.7l1.7-6.2a.57.57,0,0,1,.7-.4h0A.57.57,0,0,1,238.4,107.7Z" transform="translate(-23.99 -1.87)"/><path class="cls-2" d="M234.2,105.3l-2.3,8.8a.57.57,0,0,1-.7.4h0a.57.57,0,0,1-.4-.7l2.3-8.8a.57.57,0,0,1,.7-.4h0C234.1,104.6,234.3,104.9,234.2,105.3Z" transform="translate(-23.99 -1.87)"/><path class="cls-2" d="M247.9,11.3l-2.6,5.9a.63.63,0,0,1-.8.3h0a.63.63,0,0,1-.3-.8l2.6-5.9a.63.63,0,0,1,.8-.3h0A.67.67,0,0,1,247.9,11.3Z" transform="translate(-23.99 -1.87)"/><path class="cls-2" d="M256.5,15.2l-2.6,5.9a.63.63,0,0,1-.8.3h0a.63.63,0,0,1-.3-.8l2.6-5.9a.63.63,0,0,1,.8-.3h0A.67.67,0,0,1,256.5,15.2Z" transform="translate(-23.99 -1.87)"/><path class="cls-2" d="M252.7,12.1,249,20.4a.63.63,0,0,1-.8.3h0a.63.63,0,0,1-.3-.8l3.7-8.3a.63.63,0,0,1,.8-.3h0A.63.63,0,0,1,252.7,12.1Z" transform="translate(-23.99 -1.87)"/><path class="cls-2" d="M292.6,67.1l-6.1-2a.57.57,0,0,1-.4-.7h0a.57.57,0,0,1,.7-.4l6.1,2a.57.57,0,0,1,.4.7h0A.57.57,0,0,1,292.6,67.1Z" transform="translate(-23.99 -1.87)"/><path class="cls-2" d="M289.6,76l-6.1-2a.57.57,0,0,1-.4-.7h0a.57.57,0,0,1,.7-.4l6.1,2a.57.57,0,0,1,.4.7h0A.51.51,0,0,1,289.6,76Z" transform="translate(-23.99 -1.87)"/><path class="cls-2" d="M292.3,72l-8.6-2.9a.57.57,0,0,1-.4-.7h0a.57.57,0,0,1,.7-.4l8.6,2.9a.57.57,0,0,1,.4.7h0C293,71.9,292.6,72.1,292.3,72Z" transform="translate(-23.99 -1.87)"/><path class="cls-2" d="M269.7,96.6l3.6,5.3a.63.63,0,0,0,.8.2h0a.63.63,0,0,0,.2-.8L270.7,96a.63.63,0,0,0-.8-.2h0A.52.52,0,0,0,269.7,96.6Z" transform="translate(-23.99 -1.87)"/><path class="cls-2" d="M261.9,101.8l3.6,5.3a.63.63,0,0,0,.8.2h0a.63.63,0,0,0,.2-.8l-3.6-5.3a.63.63,0,0,0-.8-.2h0A.55.55,0,0,0,261.9,101.8Z" transform="translate(-23.99 -1.87)"/><path class="cls-2" d="M265.1,98.1l5.1,7.5a.63.63,0,0,0,.8.2h0a.63.63,0,0,0,.2-.8l-5.1-7.5a.63.63,0,0,0-.8-.2h0A.49.49,0,0,0,265.1,98.1Z" transform="translate(-23.99 -1.87)"/><path class="cls-1" d="M229,30.7a28.27,28.27,0,0,0-7.4,9.8h0l-.3.1c.3-1.7.7-7.8-4.9-16a1.38,1.38,0,0,1-.3-.4c-.6-.8-4.2-6.1-2-15a13.48,13.48,0,0,0-1.3,13.7s-6-1.5-8.2,3.3c0,0,1.4-.7,2.2-.1.2.1.3.2.5.3a3.74,3.74,0,0,0,4.6-1.1s-.4-1-2.5-1c0,0,4-1,5.4,1.4,0,0,5,5.8,4.7,15.6,0,0-6.1-13.6-17-7.9a3.35,3.35,0,0,1,2.9,2,4.19,4.19,0,0,0,.9,1.4c1.3,1.4,4.1,3.8,8.1,1.5a5.41,5.41,0,0,0-4.2-3.4s6.7,0,8.7,10.7l-1.3,38.2a1.2,1.2,0,0,0,1.1,1.2h0a1.11,1.11,0,0,0,1.1-1.1c.1-5.1.4-26.5,1-33.2,0,0,.1-3.9.9-5.1,9.2-17,27.9-16.6,27.9-16.6C235,29.6,224,42.9,224,42.9c4.4-1.9,11.1.1,11.1.1a14.39,14.39,0,0,0,14-2.8,19.51,19.51,0,0,0,4.8-6.2c3.1-6.3,8.5-5.8,8.5-5.8C246.3,20.6,235.5,25.1,229,30.7Z" transform="translate(-23.99 -1.87)"/><path class="cls-1" d="M226.3,51.5H210.6a1.37,1.37,0,0,1-1.4-1.4h0a1.37,1.37,0,0,1,1.4-1.4h15.7a1.37,1.37,0,0,1,1.4,1.4h0A1.43,1.43,0,0,1,226.3,51.5Z" transform="translate(-23.99 -1.87)"/><path class="cls-1" d="M218.5,96.1h0a7.85,7.85,0,0,1-7.9-7.9V52.6h15.8V88.2A7.92,7.92,0,0,1,218.5,96.1Z" transform="translate(-23.99 -1.87)"/><path class="cls-1" d="M231.7,57.5v-5a19.4,19.4,0,0,0-2.7.1,5.64,5.64,0,0,1-.1-.7c0-.2,0-.3.1-.4s.2-.2.3-.2.3-.1.4-.1h3.6a26.49,26.49,0,0,0,3.3-.1c0,.2.1.4.1.7,0,.5-.4.8-1.1.8H234c0,.9-.1,1.8-.1,2.7V58a10.32,10.32,0,0,0,.3,2.6,5.9,5.9,0,0,1-1.4.2,1.33,1.33,0,0,1-1-.3,1.22,1.22,0,0,1-.3-.9v-.9A3.23,3.23,0,0,0,231.7,57.5Z" transform="translate(-23.99 -1.87)"/><path class="cls-1" d="M240.8,53.6a3.45,3.45,0,0,1,1.8.5,1.94,1.94,0,0,1,.8,1.6c0,1.4-1,2.1-3.1,2.1h-1a1.59,1.59,0,0,0,.4,1.2,1.78,1.78,0,0,0,1,.4,2.06,2.06,0,0,0,1.7-.7,1,1,0,0,1,.5.4,1.69,1.69,0,0,1,.2.5c0,.3-.2.5-.5.7a1.93,1.93,0,0,1-1,.3c-.3,0-.6.1-.9.1a3.74,3.74,0,0,1-2.6-.9,3.34,3.34,0,0,1-1-2.7,3.17,3.17,0,0,1,.6-2,2.69,2.69,0,0,1,1.4-1.2A4.31,4.31,0,0,1,240.8,53.6Zm-.1,1.4a1.19,1.19,0,0,0-.9.5,2,2,0,0,0-.4,1.4h.6a1.09,1.09,0,0,0,.5-.1c.2,0,.4-.1.4-.2l.3-.3a1.08,1.08,0,0,0,.1-.6.52.52,0,0,0-.2-.4C240.9,55.1,240.8,55,240.7,55Z" transform="translate(-23.99 -1.87)"/><path class="cls-1" d="M247.9,59.4a1.88,1.88,0,0,0,.8-.2,1.33,1.33,0,0,0,.5-.6c.4.2.7.3.9.4a.76.76,0,0,1,.2.5.93.93,0,0,1-.7.9,4.84,4.84,0,0,1-1.8.3,3.74,3.74,0,0,1-2.6-.9,3,3,0,0,1-1-2.5,4.67,4.67,0,0,1,.3-1.7,3.6,3.6,0,0,1,.8-1.2,2.38,2.38,0,0,1,1.1-.6,5,5,0,0,1,1.2-.2,3.29,3.29,0,0,1,1.7.4,1,1,0,0,1,.8,1c0,.6-.5.9-1.4,1.1a1.37,1.37,0,0,0-.5-.8,1.08,1.08,0,0,0-.7-.3,1.05,1.05,0,0,0-.9.5,2.54,2.54,0,0,0-.4,1.6C246.4,58.6,246.9,59.4,247.9,59.4Z" transform="translate(-23.99 -1.87)"/><path class="cls-1" d="M252.4,49.9a2,2,0,0,1,.9.2.78.78,0,0,1,.3.7,10.3,10.3,0,0,1-.1,1.3c0,.8-.1,1.4-.1,1.8v.6a2.88,2.88,0,0,1,2.1-.9,2.06,2.06,0,0,1,2.2,2.2v2.5a12.48,12.48,0,0,0,.2,2.1,5.07,5.07,0,0,1-1.3.2q-1.2,0-1.2-.9V56.1a2,2,0,0,0-.2-.9.86.86,0,0,0-.6-.3,1.71,1.71,0,0,0-1.3.7v2.7a14.79,14.79,0,0,0,.1,2.2h-.9c-1,0-1.4-.2-1.4-.7V53.3a33.26,33.26,0,0,0-.1-3.4A6.48,6.48,0,0,0,252.4,49.9Z" transform="translate(-23.99 -1.87)"/><path class="cls-1" d="M259.1,53.9a5.16,5.16,0,0,1,1.1-.2,1,1,0,0,1,1.2.9,2.88,2.88,0,0,1,2.1-.9,2.06,2.06,0,0,1,2.2,2.2v2.5a12.48,12.48,0,0,0,.2,2.1,5.07,5.07,0,0,1-1.3.2q-1.2,0-1.2-.9V56.2a2,2,0,0,0-.2-.9.86.86,0,0,0-.6-.3,1.88,1.88,0,0,0-1.3.7v2.7a14.79,14.79,0,0,0,.1,2.2h-.9c-1,0-1.4-.2-1.4-.7v-3A5.73,5.73,0,0,0,259.1,53.9Z" transform="translate(-23.99 -1.87)"/><path class="cls-1" d="M273,59.8a3.55,3.55,0,0,1-2.5,1,3.17,3.17,0,0,1-2.5-1,3.55,3.55,0,0,1-1-2.5,3.62,3.62,0,0,1,1-2.7,3.63,3.63,0,0,1,5,0,3.87,3.87,0,0,1,1,2.7A3.17,3.17,0,0,1,273,59.8Zm-1.1-2.2a3.42,3.42,0,0,0-.4-1.8,1,1,0,0,0-1-.7,1.22,1.22,0,0,0-1,.6,3.41,3.41,0,0,0-.4,1.6,2.73,2.73,0,0,0,.4,1.6,1.1,1.1,0,0,0,1,.6,1.23,1.23,0,0,0,1-.5A3.71,3.71,0,0,0,271.9,57.6Z" transform="translate(-23.99 -1.87)"/><path class="cls-1" d="M231.5,74.8V71.2a24.18,24.18,0,0,0-.3-4.2c1-.1,2.1-.2,3.1-.2q5.7,0,5.7,3.9a4.5,4.5,0,0,1-1.1,3.1,3.62,3.62,0,0,1-2.7,1.1,4.07,4.07,0,0,1-1.8-.5v1.2a10.38,10.38,0,0,0,.4,3.2,3.69,3.69,0,0,1-1.7.3,1.7,1.7,0,0,1-1.3-.4,2.13,2.13,0,0,1-.3-1.2V74.8Zm3.9-1.7a1.43,1.43,0,0,0,1.2-.6,2.86,2.86,0,0,0,.4-1.7,2.46,2.46,0,0,0-.5-1.7,2.65,2.65,0,0,0-1.7-.5,1.76,1.76,0,0,0-.6.1c0,.6.1,1.5.1,2.9v1.3A5.16,5.16,0,0,0,235.4,73.1Z" transform="translate(-23.99 -1.87)"/><path class="cls-1" d="M242.5,65.4a3.09,3.09,0,0,1,1.1.2,1,1,0,0,1,.4.9c0,.1,0,.6-.1,1.6s-.1,1.7-.1,2.2v5a13.49,13.49,0,0,0,.3,3.4,3.89,3.89,0,0,1-1.5.2,1.74,1.74,0,0,1-1.2-.3,1.22,1.22,0,0,1-.3-.9V69.8c0-1.7,0-3.2-.1-4.3C241.5,65.5,242,65.4,242.5,65.4Z" transform="translate(-23.99 -1.87)"/><path class="cls-1" d="M247.2,73.3c-1.1-.2-1.6-.7-1.6-1.4,0-.5.3-.9,1-1.2a6.18,6.18,0,0,1,2.5-.5,4.28,4.28,0,0,1,2.8.7,3,3,0,0,1,.9,2.4v2.5a11.86,11.86,0,0,0,.3,3.1,7.84,7.84,0,0,1-1.4.2c-.9,0-1.4-.3-1.5-1a4.44,4.44,0,0,1-1.1.8,3.53,3.53,0,0,1-1.4.3,2.52,2.52,0,0,1-1.7-.6,2.35,2.35,0,0,1-.7-1.9,2.08,2.08,0,0,1,.4-1.5,2.1,2.1,0,0,1,1.1-.7,13.94,13.94,0,0,1,3.3-.6,5.67,5.67,0,0,0-.2-1.6,1.05,1.05,0,0,0-1-.4,1.62,1.62,0,0,0-1,.4A1.53,1.53,0,0,0,247.2,73.3Zm3,1.9a4.54,4.54,0,0,0-.8.2c-.2.1-.4.1-.6.2a1,1,0,0,0-.5.4,1.27,1.27,0,0,0-.1.6,1.45,1.45,0,0,0,.2.7c.1.2.3.2.5.2a2.11,2.11,0,0,0,1.3-.5v-.6A2.44,2.44,0,0,1,250.2,75.2Z" transform="translate(-23.99 -1.87)"/><path class="cls-1" d="M254.6,70.5a3.64,3.64,0,0,1,1.4-.2c.9,0,1.4.4,1.5,1.1a3.73,3.73,0,0,1,2.7-1.2,2.72,2.72,0,0,1,2,.7,2.63,2.63,0,0,1,.8,2v3.2a11.15,11.15,0,0,0,.3,2.7,4.14,4.14,0,0,1-1.6.2c-1,0-1.5-.4-1.5-1.1,0-.4,0-1.2.1-2.4s.1-1.9.1-2.1a1.61,1.61,0,0,0-.3-1.1,1.23,1.23,0,0,0-.8-.4,2.59,2.59,0,0,0-1.7.9v3.4a23.52,23.52,0,0,0,.1,2.8c-.4,0-.8.1-1.1.1q-1.8,0-1.8-.9V74.4A12.8,12.8,0,0,0,254.6,70.5Z" transform="translate(-23.99 -1.87)"/><path class="cls-1" d="M265.8,75.7V72.1c-.6,0-1.2.1-1.6.1a2.2,2.2,0,0,1-.1-.8c0-.7.5-1.1,1.5-1.1h.3c0-.7-.1-1.4-.1-1.9a2.74,2.74,0,0,1,1.3-.2h.8a.55.55,0,0,1,.5.3,1,1,0,0,1,.3.8,4.59,4.59,0,0,1-.1,1,24.51,24.51,0,0,0,3-.1,1.72,1.72,0,0,1,.1.8,1,1,0,0,1-1.1,1h-2.1c0,1.2-.1,2.4-.1,3.6v.7a1.49,1.49,0,0,0,.1.6c.1.2.1.4.3.5a.75.75,0,0,0,.5.1,2.46,2.46,0,0,0,1.5-.5c.5.4.7.7.7,1.1a.94.94,0,0,1-.6.8,3.34,3.34,0,0,1-1.5.3,3.62,3.62,0,0,1-2.8-.9A3.54,3.54,0,0,1,265.8,75.7Z" transform="translate(-23.99 -1.87)"/><path d="M34.05,42.94V25a69.53,69.53,0,0,0-9.7.36A20.3,20.3,0,0,1,24,22.81c0-.72,0-1.08.36-1.44s.71-.72,1.07-.72,1.08-.35,1.44-.35H39.8c5.75,0,9.71,0,11.86-.36,0,.71.36,1.43.36,2.51,0,1.8-1.43,2.88-4,2.88H42.32c0,3.23-.36,6.47-.36,9.7v9.71A37,37,0,0,0,43,54.08a21.24,21.24,0,0,1-5,.72c-1.8,0-2.88-.36-3.6-1.07a4.4,4.4,0,0,1-1.08-3.24V47.25A11.55,11.55,0,0,0,34.05,42.94Z" transform="translate(-23.99 -1.87)"/><path d="M66.76,28.92a12.4,12.4,0,0,1,6.47,1.8,7,7,0,0,1,2.88,5.75c0,5-3.6,7.55-11.15,7.55H61.37a5.71,5.71,0,0,0,1.44,4.31,6.37,6.37,0,0,0,3.59,1.44,7.38,7.38,0,0,0,6.11-2.52,3.59,3.59,0,0,1,1.8,1.44,6.08,6.08,0,0,1,.72,1.8c0,1.08-.72,1.8-1.8,2.52a6.9,6.9,0,0,1-3.59,1.07c-1.08,0-2.16.36-3.24.36a13.4,13.4,0,0,1-9.34-3.23c-2.52-2.16-3.6-5.39-3.6-9.71a11.41,11.41,0,0,1,2.16-7.19c1.44-2.15,2.87-3.59,5-4.31A15.5,15.5,0,0,1,66.76,28.92Zm-.36,5a4.28,4.28,0,0,0-3.23,1.8c-1.08,1.08-1.44,2.88-1.44,5h2.16a4,4,0,0,0,1.79-.35c.72,0,1.44-.36,1.44-.72l1.08-1.08a3.9,3.9,0,0,0,.36-2.16A1.87,1.87,0,0,0,67.84,35C67.12,34.31,66.76,34,66.4,34Z" transform="translate(-23.99 -1.87)"/><path d="M92.28,49.77a6.78,6.78,0,0,0,2.88-.72A4.83,4.83,0,0,0,97,46.9c1.43.71,2.51,1.07,3.23,1.43a2.75,2.75,0,0,1,.72,1.8c0,1.44-.72,2.52-2.52,3.24a17.56,17.56,0,0,1-6.47,1.07,13.4,13.4,0,0,1-9.34-3.23c-2.52-2.16-3.6-5-3.6-9a16.8,16.8,0,0,1,1.08-6.11,12.9,12.9,0,0,1,2.88-4.31,8.55,8.55,0,0,1,4-2.16,18.07,18.07,0,0,1,4.32-.72,11.82,11.82,0,0,1,6.11,1.44A3.67,3.67,0,0,1,100.19,34c0,2.16-1.8,3.24-5,4A5,5,0,0,0,93.36,35,3.89,3.89,0,0,0,90.85,34a3.78,3.78,0,0,0-3.24,1.8c-1.08,1.44-1.44,3.24-1.44,5.75C86.89,46.9,88.69,49.77,92.28,49.77Z" transform="translate(-23.99 -1.87)"/><path d="M108.46,15.62a7.11,7.11,0,0,1,3.23.72,2.8,2.8,0,0,1,1.08,2.52,37,37,0,0,1-.36,4.67c0,2.88-.36,5-.36,6.47v2.16a10.36,10.36,0,0,1,7.55-3.24,7.43,7.43,0,0,1,7.91,7.91v9a44.91,44.91,0,0,0,.72,7.55,18.24,18.24,0,0,1-4.67.71c-2.88,0-4.32-1.07-4.32-3.23V37.91a7.19,7.19,0,0,0-.72-3.24,3.06,3.06,0,0,0-2.15-1.07,6.15,6.15,0,0,0-4.68,2.51v9.71a53.17,53.17,0,0,0,.36,7.91h-3.23c-3.6,0-5-.72-5-2.52V27.84a119.4,119.4,0,0,0-.36-12.22A23.23,23.23,0,0,0,108.46,15.62Z" transform="translate(-23.99 -1.87)"/><path d="M132.54,30a18.58,18.58,0,0,1,4-.72q3.76,0,4.31,3.24a10.34,10.34,0,0,1,7.55-3.24,7.43,7.43,0,0,1,7.91,7.91v9a44.91,44.91,0,0,0,.72,7.55,18.7,18.7,0,0,1-4.68.71c-2.87,0-4.31-1.07-4.31-3.23V38.27a7.19,7.19,0,0,0-.72-3.24A3.11,3.11,0,0,0,145.12,34c-1.43,0-2.87.72-4.67,2.52v9.71a53,53,0,0,0,.36,7.9h-3.23c-3.6,0-5-.71-5-2.51V40.78C133.62,35.39,133.26,31.8,132.54,30Z" transform="translate(-23.99 -1.87)"/><path d="M182.51,51.21a12.75,12.75,0,0,1-9,3.59c-3.59,0-6.83-1.07-9-3.59a12.8,12.8,0,0,1-3.59-9c0-3.95,1.08-7.19,3.59-9.7,2.16-2.52,5.4-3.6,9-3.6s6.83,1.08,9,3.6a13.94,13.94,0,0,1,3.59,9.7C186.1,45.82,185,49.05,182.51,51.21Zm-4-7.91a12.39,12.39,0,0,0-1.43-6.47,3.75,3.75,0,0,0-3.6-2.52c-1.44,0-2.52.72-3.59,2.16a12.26,12.26,0,0,0-1.44,5.75A9.76,9.76,0,0,0,169.93,48a3.94,3.94,0,0,0,3.59,2.16,4.43,4.43,0,0,0,3.6-1.8C177.83,46.54,178.55,45.1,178.55,43.3Z" transform="translate(-23.99 -1.87)"/><path d="M33.33,95.58V82.64a86.67,86.67,0,0,0-1.08-15.09c3.6-.36,7.55-.72,11.15-.72q20.49,0,20.49,14a16.18,16.18,0,0,1-4,11.14,13,13,0,0,1-9.7,4,14.71,14.71,0,0,1-6.47-1.79v4.31A37.54,37.54,0,0,0,45.19,110,13.21,13.21,0,0,1,39.08,111c-2.15,0-3.59-.36-4.67-1.44a7.64,7.64,0,0,1-1.08-4.31V95.58Zm14-6.11a5.12,5.12,0,0,0,4.31-2.15c1.08-1.44,1.44-3.6,1.44-6.11,0-2.88-.72-5-1.79-6.12a9.59,9.59,0,0,0-6.12-1.79,6.29,6.29,0,0,0-2.15.36c0,2.15.36,5.39.36,10.42v4.67A18.39,18.39,0,0,0,47.35,89.47Z" transform="translate(-23.99 -1.87)"/><path d="M72.87,61.79a11.11,11.11,0,0,1,4,.72,3.5,3.5,0,0,1,1.43,3.24c0,.36,0,2.16-.35,5.75,0,3.59-.36,6.11-.36,7.91v18c0,5.75.36,9.71,1.07,12.22a13.92,13.92,0,0,1-5.39.72c-2.15,0-3.59-.36-4.31-1.08A4.38,4.38,0,0,1,67.84,106V77.61c0-6.11,0-11.5-.36-15.46C69.28,62.15,71.08,61.79,72.87,61.79Z" transform="translate(-23.99 -1.87)"/><path d="M89.77,90.19c-4-.72-5.75-2.51-5.75-5,0-1.8,1.07-3.24,3.59-4.31a22.18,22.18,0,0,1,9-1.8c4.67,0,7.91.72,10.06,2.51s3.24,4.68,3.24,8.63v9A42.53,42.53,0,0,0,111,110.32a28.24,28.24,0,0,1-5,.72c-3.23,0-5-1.08-5.39-3.59a16.34,16.34,0,0,1-4,2.87,12.71,12.71,0,0,1-5,1.08,9.08,9.08,0,0,1-6.11-2.16c-1.79-1.43-2.51-3.95-2.51-6.83,0-2.51.36-4.31,1.44-5.39a7.43,7.43,0,0,1,4-2.51,50,50,0,0,1,11.86-2.16,20.32,20.32,0,0,0-.72-5.75c-.72-1.08-1.79-1.44-3.59-1.44a5.82,5.82,0,0,0-3.6,1.44A5.52,5.52,0,0,0,89.77,90.19ZM100.55,97a15.94,15.94,0,0,0-2.87.72c-.72.36-1.44.36-2.16.72a3.59,3.59,0,0,0-1.8,1.44,4.55,4.55,0,0,0-.36,2.15,5.2,5.2,0,0,0,.72,2.52c.36.72,1.08.72,1.8.72a7.56,7.56,0,0,0,4.67-1.8v-2.15A8.77,8.77,0,0,1,100.55,97Z" transform="translate(-23.99 -1.87)"/><path d="M116.37,80.13a13,13,0,0,1,5-.72c3.23,0,5,1.44,5.39,4a13.44,13.44,0,0,1,9.71-4.31,9.83,9.83,0,0,1,7.19,2.51,9.49,9.49,0,0,1,2.87,7.19v11.51a40,40,0,0,0,1.08,9.7,14.87,14.87,0,0,1-5.75.72c-3.6,0-5.39-1.44-5.39-4,0-1.44,0-4.32.36-8.63,0-4.31.36-6.83.36-7.55a5.76,5.76,0,0,0-1.08-4,4.44,4.44,0,0,0-2.88-1.44c-1.8,0-3.95,1.08-6.11,3.23v12.23a84.33,84.33,0,0,0,.36,10.06c-1.44,0-2.88.36-4,.36-4.32,0-6.47-1.08-6.47-3.23V94.15C117.45,87,117.09,82.28,116.37,80.13Z" transform="translate(-23.99 -1.87)"/><path d="M156.63,98.82V85.88c-2.16,0-4.32.36-5.75.36a7.93,7.93,0,0,1-.36-2.88c0-2.51,1.79-4,5.39-4H157c0-2.52-.36-5-.36-6.83a9.82,9.82,0,0,1,4.67-.72h2.88A2,2,0,0,1,166,72.94a3.53,3.53,0,0,1,1.08,2.87,16.53,16.53,0,0,1-.36,3.6,87.87,87.87,0,0,0,10.78-.36,6.16,6.16,0,0,1,.36,2.87c0,2.16-1.43,3.6-4,3.6h-7.55c0,4.31-.36,8.63-.36,12.94V101a5.33,5.33,0,0,0,.36,2.15c.36.72.36,1.44,1.08,1.8a2.7,2.7,0,0,0,1.8.36,8.83,8.83,0,0,0,5.39-1.8c1.8,1.44,2.52,2.52,2.52,4a3.38,3.38,0,0,1-2.16,2.87,12,12,0,0,1-5.39,1.08c-4.68,0-8.27-1.08-10.07-3.24C157.35,106,156.63,102.77,156.63,98.82Z" transform="translate(-23.99 -1.87)"/></svg>